/* XPM */
static char *result[] = {
/* columns rows colors chars-per-pixel */
"40 40 78 1 ",
"  c #030200",
". c #070D14",
"X c #241905",
"o c #291C06",
"O c #262217",
"+ c #292315",
"@ c #2C2B29",
"# c #353432",
"$ c #3E583B",
"% c #62450F",
"& c #66480F",
"* c #68490F",
"= c #654811",
"- c #644C1B",
"; c #425A3A",
": c #445E45",
"> c #485F47",
", c #496047",
"< c #4A614A",
"1 c #5F6C50",
"2 c #606D52",
"3 c #6E7664",
"4 c #6F7866",
"5 c #6D776C",
"6 c #6E786D",
"7 c #757C6E",
"8 c #7A7D6B",
"9 c #667677",
"0 c #687776",
"q c #6F7971",
"w c #707A71",
"e c #797F79",
"r c #857A32",
"t c #897B32",
"y c #897D65",
"u c #7B8076",
"i c #7F837D",
"p c #B38E2C",
"a c #B5902E",
"s c #BC932D",
"d c #FEB01E",
"f c #CF9C29",
"g c #D19C27",
"h c #DFA636",
"j c #FDB125",
"k c #E2A735",
"l c #E3A834",
"z c #A6884F",
"x c #A58C56",
"c c #AA9152",
"v c #888365",
"b c #81847D",
"n c #CB9E42",
"m c #CBAE77",
"M c #C0AA7F",
"N c #C9AE79",
"B c #1D599E",
"V c #2A5E97",
"C c #225B9D",
"Z c #295F9D",
"A c #3D658D",
"S c #326397",
"D c #2F63A0",
"F c #3366A0",
"G c #3769A0",
"H c #3A6AA0",
"J c #486985",
"K c #758CA6",
"L c #798EA6",
"P c #7D90A7",
"I c #888987",
"U c #8B8B8B",
"Y c #959493",
"T c #9A9998",
"R c #B6AC99",
"E c #9AA1A9",
"W c #A5A7AA",
"Q c #ABABAB",
/* pixels */
"BBBBBBBBBBBBAjjjjjjjjcBBBBBBBBBBBBBBBBBB",
"BBBBBBBBBAu6vjjjjjjjjnww0CBBBBBBBBBBBBBB",
"BBBBBBBBBqjjjjjjjjjjjjjjkCBBBBBBBBBBBBBB",
"BBBBBBBBBujjjjjjjjjjjjjjkVBBBBBBBBBBBBBB",
"BBBBBBBBBqjjjjjjjjjjjjjjkZBBBBBBBBBBBBBB",
"BBBBBBBBBqjjjjjjjjjjjjjjkBBCCCBBBBBBBBBB",
"BBBBBBBBBJu-=*&&%%xNNNNNRPKLLLLFBBBBBBBB",
"BBBBBBBBBBB.     #TWQQWQQRQQQQQGBBBBBBBB",
"BBBBBBBBBVAOXXXXXoyRRRRREEWQQQQSBBBBBBBB",
"BBBBBBBBBqjjppppappppfddBBKQQQQHBBBBBBBB",
"BBBBBBBBBqjj;$$$$$$$$rjdCBKQQQQHBBBBBBBB",
"BBBBBBBBBqjj$$$$:$$$$rjjCCKQQQQGBBBBBBBB",
"BBBBBBBBBqjj:$5UUUU,$rjjZBKQQQQFBBBBBBBB",
"BBBBBBBBBqjj;$6UeiU,$rjjCBKQQQQDBBBBBBBB",
"BBBBBBBBBqjj;$6U24U>$rjdBBKQQQQDBBBBBBBB",
"BBBBBBBBBqjj$$5U24U,$rjjCBKQQQQDBBBBBBBB",
"BBBBBBBBBujj$$6U14I>$rjjVBKQQQQDBBBBBBBB",
"BBBBBBBBBujj;$6U24U<$rjjSBKQQQQDBBBBBBBB",
"BBBBBBBBB0jj$$6U13U<$rjjVCKQQQQDBBBBBBBB",
"BBBBBBBBB6jj$$6U14U,$rjdCCKWQQQDBBBBBBBB",
"BBBBBBBBB5jj$$qU24U>$rjjSCKQQQQDBBBBBBBB",
"BBBBBBBBBujj;$6U23U<$tjdVCKQQQQDBBBBBBBB",
"BBBBBBBBB0jj;$6U23I>$tjjCBKWQQQDBBBBBBBB",
"BBBBBBBBBujj$$6U24U>$tjjBBKQQQQDBBBBBBBB",
"BBBBBBBBBwjj;$6U14U<$tjjCBKQQQQDBBBBBBBB",
"BBBBBBBBBqjj;;7U24U,$tjdCCKQQQQDBBBBBBBB",
"BBBBBBBBBwjj$$6UebU<$rjjZBKQQQQDBBBBBBBB",
"BBBBBBBBCwjj;$qUUUU>$rjdZBLQQQQDBBBBBBBB",
"BBBBBBBBBwjj;$9yeie:$rjdBCLQQQQDBBBBBBBB",
"BBBBBBBBBwjj;$$;$;$;$tjdCBKQQQQDBBBBBBBB",
"BBBBBBBBBwjjsapppppppgdjCCLQQQQDBBBBBBBB",
"BBBBBBBBBZJ+XoXXXX8RRRRREEWQQQQDBBBBBBBB",
"BBBBBBBBBBB.     @YQQQQQQQQQQQQDBBBBBBBB",
"BBBBBBBBBAu-%%%%%%zNmNNNMLLLLPLDBBBBBBBB",
"BBBBBBBBBujjjjjjjjjjjdjjkCZCCCBBBBBBBBBB",
"BBBBBBBBB5jjjjjjjjjjjjjjkCBBBBBBBBBBBBBB",
"BBBBBBBBBqjjjjjjjjjjjjjjlVBBBBBBBBBBBBBB",
"BBBBBBBBBqjjjjjjjljjjjjjhVBBBBBBBBBBBBBB",
"BBBBBBBBBAqwujjjjjjjjnw79BBBBBBBBBBBBBBB",
"BBBBBBBBBBBBAjjjjjjjjxBBBBBBBBBBBBBBBBBB"
};
