/* XPM */
static char *result[] = {
/* columns rows colors chars-per-pixel */
"40 40 189 2 ",
"   c #713E43",
".  c #35536D",
"X  c #3C556B",
"o  c #365674",
"O  c #3B5872",
"+  c #365B7B",
"@  c #3A5D7B",
"#  c #3E617E",
"$  c #564745",
"%  c #495259",
"&  c #774045",
"*  c #6A5046",
"=  c #71594F",
"-  c #674A5E",
";  c #714F54",
":  c #655956",
">  c #455A6E",
",  c #485B6E",
"<  c #515C66",
"1  c #515C68",
"2  c #445F7A",
"3  c #595475",
"4  c #685466",
"5  c #75546A",
"6  c #725A76",
"7  c #5C6369",
"8  c #4C6274",
"9  c #44627C",
"0  c #4A6278",
"q  c #586775",
"w  c #5F737F",
"e  c #666767",
"r  c #786B68",
"t  c #686C75",
"y  c #697178",
"u  c #7F7977",
"i  c #8C494E",
"p  c #894D56",
"a  c #944C51",
"s  c #994E53",
"d  c #8D5257",
"f  c #9C5156",
"g  c #A25257",
"h  c #A65559",
"j  c #AA575B",
"k  c #A35A5D",
"l  c #AE595D",
"z  c #B35A5E",
"x  c #87675C",
"c  c #97635C",
"v  c #805468",
"b  c #85596D",
"n  c #955761",
"m  c #865D75",
"M  c #A55D63",
"N  c #A95F63",
"B  c #B55D61",
"V  c #BA5E62",
"C  c #856D61",
"Z  c #946564",
"A  c #83746C",
"S  c #97786A",
"D  c #966578",
"F  c #877770",
"G  c #987878",
"H  c #B56765",
"J  c #BC6469",
"K  c #AC7A6B",
"L  c #C26266",
"P  c #C66468",
"I  c #C96669",
"U  c #CE696C",
"Y  c #D26B6E",
"T  c #D76E71",
"R  c #D96F72",
"E  c #C87474",
"W  c #DD7275",
"Q  c #D1757D",
"!  c #DD7C7E",
"~  c #E27577",
"^  c #E27679",
"/  c #E37A7C",
"(  c #EC7C7E",
")  c #9F8173",
"_  c #B1866F",
"`  c #A78778",
"'  c #B78D79",
"]  c #BD937C",
"[  c #C38876",
"{  c #CD9278",
"}  c #1D599E",
"|  c #2B5988",
" . c #2B5B8E",
".. c #335C83",
"X. c #385B88",
"o. c #245995",
"O. c #2C5D93",
"+. c #225A9C",
"@. c #2B5D9B",
"#. c #3A5D97",
"$. c #355D9A",
"%. c #3E6585",
"&. c #39658D",
"*. c #2C619D",
"=. c #346493",
"-. c #33649B",
";. c #396898",
":. c #3D719F",
">. c #2C5FA0",
",. c #2E62A1",
"<. c #3868A0",
"1. c #4B5885",
"2. c #46598B",
"3. c #4A5C8C",
"4. c #545D87",
"5. c #625E85",
"6. c #406583",
"7. c #496A86",
"8. c #426C8D",
"9. c #53748D",
"0. c #496796",
"q. c #446F91",
"w. c #456299",
"e. c #5B6798",
"r. c #5D6B9A",
"t. c #457192",
"y. c #4B7396",
"u. c #44749A",
"i. c #4A7599",
"p. c #4A7A9D",
"a. c #5F7497",
"s. c #5D7B9C",
"d. c #6C6981",
"f. c #7A698B",
"g. c #6A7689",
"h. c #76788A",
"j. c #626592",
"k. c #7D7292",
"l. c #747D93",
"z. c #4777A5",
"x. c #4C7DA1",
"c. c #5075A0",
"v. c #5B72A5",
"b. c #816E8F",
"n. c #9D7087",
"m. c #837096",
"M. c #967891",
"N. c #BE7E8D",
"B. c #937FA6",
"V. c #DC7D84",
"C. c #EE7E80",
"Z. c #6B859A",
"A. c #4F82A6",
"S. c #4F83A9",
"D. c #5383A4",
"F. c #5185AA",
"G. c #548CB3",
"H. c #5892BA",
"J. c #6482A2",
"K. c #7C8BA1",
"L. c #5E9AC4",
"P. c #61A0CB",
"I. c #8B848F",
"U. c #968487",
"Y. c #808192",
"T. c #89959E",
"R. c #929797",
"E. c #B39684",
"W. c #B99885",
"Q. c #A489A6",
"!. c #B688A2",
"~. c #ACAFAC",
"^. c #BBB5AD",
"/. c #B4A0BA",
"(. c #AAB5BE",
"). c #B9BBB8",
"_. c #DC8289",
"`. c #C39C8A",
"'. c #D69F83",
"]. c #E98587",
"[. c #F18385",
"{. c #F08688",
"}. c #C1A18B",
"|. c #CCA28A",
" X c #D7A485",
".X c #D5A88D",
"XX c #CFAB95",
"oX c #DCAE90",
"OX c #E2DED2",
/* pixels */
"} } } } } } } } } } } } } } } } } } } } } } } } } } } } } } } } } } } } } } } } ",
"} } } } } } } } } } } } } } } o. .=.&.&.=.*.} } } } } } } } } } } } } } } } } } ",
"} } } } } } } } } } } } o.o. .=.&.;.p.p.p.:.-.*.} } } } } } } } } } } } } } } } ",
"} } } } } } } } } } } } + + %.&.p.x.S.G.H.H.F.x.*.*.} } } } } } } } } } } } } } ",
"} } } } } } } } } } +.+ + %.%.t.p.A.G.H.L.P.P.H.G.:.*.+.} } } } } } } } } } } } ",
"} } } } } } } } } } o.%.+ @ %.q.A.A.A.A.G.L.P.H.F.p.A.u.=.} } } } } } } } } } } ",
"} } } } } } } } } } O.| + + %.t.p.A.A.8.H.A.A.D.Z.Z.y 0 o  .} } } } } } } } } } ",
"} } } } } } } } } }  .+ o %.8.t.p.A.p.# p.7., < y 7 q r y  .} } } } } } } } } } ",
"} } } } } } } } } +.=.9 8 0 6.8.y.y.q.9 > % : = e 7 e ) U.o.} } } } } } } } } } ",
"} } } } } } } } } } O.w y q O 8.# @ 9 9.$ * S ] C e C ) h.} } } } } } } } } } } ",
"} } } } } } } } } }  .o . . 8 o + 6.q C _ x ` E.A 7 ) y *.} } } } } } } } } } } ",
"} } } } } } } } } +.+.@ > , , O 9 7 F E. XW.`.`.u e ` K.+.} } } } } } } } } } } ",
"} } } } } } } } } } } .., q O + t A ` XX'..XoX`.e r [ Y.+.} } } } } } } } } } } ",
"} } } } } } } } } } }  .2 2 + X A ` W..X' '.'._ - Z ] h.+.} } } } } } } } } } } ",
"} } } } } } } } } } } } | + + X r S _ { K K K c   M _ g.} } } } } } } } } } } } ",
"} } } } } } } } } } } } O.%.1 % : x c K _ [ E N & l f 3 +.} } } } } } } } } } } ",
"} } } } } } } } } } } } O.8.9.% ; d f H H ! ].E g z 5 X.} } } } } } } } } } } } ",
"} } } } } } } } } } } +.=.i.x.4 d f l I L / ].! L m 2.+.} } } } } } } } } } } } ",
"} } } } } } } } } } } o.-.z.e.D k h l Y U / [.[.Q 3.+.} } } } } } } } } } } } } ",
"} } } } } } } } } } } } } o.4.n z k k P U ~ C.[._.$.} } } } } } } } } } } } } } ",
"} } } } } } } } } } } } } 1.M s H z h B I W ( [.V.$.} } } } } } } } } } } } } } ",
"} } } } } } } } } } } } #.d.B s j j g h L T ( C.V.@.} } } } } } } } } } } } } } ",
"} } } } } } } } } } } } 3.D L j h f f f V Y ^ C.V.$.} } } } } } } } } } } } } } ",
"} } } } } } } } } } } } 2.n.J V f p i a V U ~ ( V.w.>.} } } } } } } } } } } } } ",
"} } } } } } } } } } } } } w.G E 6 - i g B I W ( V.3.>.} } } } } } } } } } } } } ",
"} } } } } } } } } } } } } e.XX}.d.- a j l U R ^ V.b.$.} } } } } } } } } } } } } ",
"} } } } } } } } } } } } -.K.|.a.4.5 s j V U R W ^ N.w.} } } } } } } } } } } } } ",
"} } } } } } } } } } } } a.U.) @.1.v h z L U R W C.V.e.} } } } } } } } } } } } } ",
"} } } } } } } } } } } } a.I.0.+.1.b z z P Y R ~ C.{.e.} } } } } } } } } } } } } ",
"} } } } } } } } } } } } } } +.} 1.b z I U R / / V.V.e.>.} } } } } } } } } } } } ",
"} } } } } } } } } } } } } } } } 2.b V T W V.V.V.!.r.>.} } } } } } } } } } } } } ",
"} } } } } } } } } } } } } } } +.X.6 N E f.e.j.M.Q.v.>.} } } } } } } } } } } } } ",
"} } } } } } } } } } } } } } } } o.5.n.!.w.+.0.m.B.v.,.} } } } } } } } } } } } } ",
"} } } } } } } } } } } } } } } } } e.Q./.>.} 0.k.M.v.-.} } } } } } } } } } } } } ",
"} } } } } } } } } } } } } } } } >.l.XX^.,.} =.g.` K.<.} } } } } } } } } } } } } ",
"} } } } } } } } } } } } } } } } c.(.OX).,.} @.v.^.).z.} } } } } } } } } } } } } ",
"} } } } } } } } } } } } } } } *.Z.~.).T.*.} -.s.R.R.u.+.} } } } } } } } } } } } ",
"} } } } } } } } } } } } } } } ,.i.J.J.y.+.} *.;.0.i.*.+.} } } } } } } } } } } } ",
"} } } } } } } } } } } } } } } } } } } } } } } } } } } } } } } } } } } } } } } } ",
"} } } } } } } } } } } } } } } } } } } } } } } } } } } } } } } } } } } } } } } } "
};
