/* XPM */
static char *E11654781547[] = {
/* columns rows colors chars-per-pixel */
"40 40 184 2 ",
"   c #020203",
".  c #030609",
"X  c #07090B",
"o  c #0B0C0C",
"O  c #050C15",
"+  c #090E13",
"@  c #050E19",
"#  c #0B1016",
"$  c #06111E",
"%  c #0B121C",
"&  c #131414",
"*  c #13161A",
"=  c #1D1D1E",
"-  c #071424",
";  c #091421",
":  c #0C1826",
">  c #081728",
",  c #0B1A2C",
"<  c #131A24",
"1  c #161C24",
"2  c #0A1D33",
"3  c #0C223B",
"4  c #272727",
"5  c #262729",
"6  c #25282C",
"7  c #2A2A2B",
"8  c #2D2E30",
"9  c #2B333C",
"0  c #333435",
"q  c #363738",
"w  c #3B3C3D",
"e  c #0C2542",
"r  c #0D2846",
"t  c #0E2B4C",
"y  c #122841",
"u  c #102B48",
"i  c #0F2F53",
"p  c #113155",
"a  c #11345C",
"s  c #2C3949",
"d  c #123761",
"f  c #133966",
"g  c #143D6B",
"h  c #183F6C",
"j  c #324051",
"k  c #154274",
"l  c #17457A",
"z  c #18477C",
"x  c #18487F",
"c  c #3C5675",
"v  c #434343",
"b  c #4B4C4C",
"n  c #545454",
"m  c #575758",
"M  c #5C5C5D",
"N  c #4D6177",
"B  c #646464",
"V  c #6B6B6B",
"C  c #747474",
"Z  c #7C7C7C",
"A  c #184A83",
"S  c #1A4F8B",
"D  c #1A518F",
"F  c #1B5393",
"G  c #1C569A",
"H  c #1D599E",
"J  c #225696",
"K  c #285D9D",
"L  c #31629E",
"P  c #1F5AA2",
"I  c #215CA4",
"U  c #215FAA",
"Y  c #2B61A2",
"T  c #2361AD",
"R  c #2A65AD",
"E  c #3365A1",
"W  c #396AA6",
"Q  c #3367A8",
"!  c #356BAC",
"~  c #396DAC",
"^  c #3D71AF",
"/  c #2B67B0",
"(  c #2D69B1",
")  c #336DB3",
"_  c #3770B5",
"`  c #3A72B5",
"'  c #3E75B8",
"]  c #496281",
"[  c #446A97",
"{  c #4B719F",
"}  c #58769B",
"|  c #63768F",
" . c #426EA1",
".. c #4373AD",
"X. c #4B75AA",
"o. c #547CAD",
"O. c #597DA8",
"+. c #4475B2",
"@. c #4478B6",
"#. c #4D7BB2",
"$. c #4177B8",
"%. c #447ABA",
"&. c #4A7DBC",
"*. c #5F81AA",
"=. c #4E81BE",
"-. c #5580B5",
";. c #5C84B3",
":. c #5283BE",
">. c #5B87BE",
",. c #6C8AAE",
"<. c #6086B4",
"1. c #6489B5",
"2. c #6A8CB4",
"3. c #6B8FB9",
"4. c #6C90BC",
"5. c #7592B4",
"6. c #7392B9",
"7. c #7C99BD",
"8. c #5686C0",
"9. c #5887C1",
"0. c #5C8AC2",
"q. c #618EC4",
"w. c #6591C5",
"e. c #6B94C5",
"r. c #6D96C8",
"t. c #7196C3",
"y. c #769AC4",
"u. c #7C9CC2",
"i. c #749BCA",
"p. c #799FCC",
"a. c #7DA1CE",
"s. c #828282",
"d. c #8B8B8B",
"f. c #8E8F90",
"g. c #939393",
"h. c #9D9D9D",
"j. c gray65",
"k. c #ABABAB",
"l. c #B3B3B4",
"z. c gray72",
"x. c #87A2C3",
"c. c #89A3C3",
"v. c #83A4CD",
"b. c #8DA9CA",
"n. c #88A8CD",
"m. c #93AAC7",
"M. c #95ABC6",
"N. c #9AAFC7",
"B. c #9EB2C9",
"V. c #85A8D2",
"C. c #A2B5CB",
"Z. c #A2B7D1",
"A. c #AEBFD2",
"S. c #B3C2D5",
"D. c #B9C6D6",
"F. c #BDCAD9",
"G. c #C5C5C5",
"H. c #C6C7C8",
"J. c #CDCDCE",
"K. c #C2CEDC",
"L. c #C6D1DE",
"P. c #CAD4DF",
"I. c #D5D5D5",
"U. c #D7D8DA",
"Y. c #DCDCDC",
"T. c #C7D4E2",
"R. c #CDD7E2",
"E. c #C6D6EA",
"W. c #D3DBE4",
"Q. c #D3DEEB",
"!. c #D8DFE8",
"~. c #DAE1E9",
"^. c #DBE5F2",
"/. c #E2E2E2",
"(. c #E0E4EA",
"). c #E4E9EF",
"_. c #ECECEC",
"`. c #E5EAF1",
"'. c #EAEFF5",
"]. c #EEF1F5",
"[. c #F3F4F5",
"{. c #F4F6F8",
"}. c #F7F8FA",
"|. c #FFFFFF",
/* pixels */
"H H H H H H H H H H H H H k @           .       O f J G H G H H H H H H H H H H ",
"H H H H H H H H F k a 3 , -           .         . ; 2 t l G H H H H H H H H H H ",
"H H H H H H H A p 2 ; o 1 w M C Z s.s.s.s.s.Z s.s.Z m 9 3 p z F H H H H H H H H ",
"H H H H H H G a O . & v C j.J.[.|.|.|.|.|.|.|.|.}.}.G.C 0 + 3 g S H H H H H H H ",
"H H H H H H A e X & b H.}.|.|.|.|.|.|.|.|.|.|.|.|.|.|./.h.4 o + i F H P H H H H ",
"H H H H H F 3 . 4 d./.}.|.|.|.|.|.|.|.|.|.|.|.|.|.|.|.|.[.I.n & O r F H H H H H ",
"H H H G S y + b k.Y.}.|.|.|.|.|.|.|.|.|.|.|.|.|.|.|.|.|.|.}.J.s.q + e F H H H H ",
"H H K D p + b j.[.|.|.|.|.|.|.|.|.|.|.|.|.|.|.|.|.|.|.|.|.|.|.Y.s.8 O i S H H H ",
"H H F h 1 q k._.}.].).).).).).).`.`.].|.|.{.'.`.).).).).).).].|.I.s.= + f F H H ",
"H H z y = j._.|.].F.C.C.C.B.C.B.C.C.L.|.|.!.S.N.N.N.N.N.N.C.K.].|.I.B & 2 k H H ",
"P F t X 4 Y.}.|.!.5.m.n.v.u.y.e.e.<.u.).}.x.X.! ! +.+.@.+.+.,.Q.|.}.Y.b & r D H ",
"F p ; w z.[.|.|.R.*.n.v.a.i.t.r.w.>.3.B.D.;.! ) R R R R R R [ T.|.|.}.G.q > d H ",
"F 3 * B |.|.|.}.K.O.a.a.i.r.w.w.q.>.-.o.2...) ( / T T T T P I F.}.|.|.|.M % e H ",
"D , w g.|.|.|.'.S.;.a.i.r.w.w.0.:.%.! Y Y ) ( T T P T T T T H Z.].|.|.|.g.0 , G ",
"z , V Y.|.|.|.!.B.4.i.r.w.0.0.:.' ( T R T T T T T T U T T T I c.~.|.|.|./.V > A ",
"O . Z [.|.|.|.L.x.i.r.w.0.0.:._ / T T R T T T T T T T T T T T 4.L.|.|.|.|.Z O r ",
"    Z |.|.|.|.D.6.i.e.0.8.8.( / ( $.&.{ [ #.` T T T T T T T T #.D.|.|.|.|.s.. @ ",
"    s.|.|.|.|.A.;.r.q.9.8.' ( ' V.c.| j s N 5.p._ T T T T T T W Z.|.|.|.|.Z     ",
"    s.|.|.|.}.Z.o.w.9.8.' 8.r.V.^.l.b . . 7 h.^.v.q.) T T T T I b.}.|.|.|.Z     ",
"    s.|.|.|.].M.#.0.8.&.' i.`.].|.g.=     o d.}.'.Q.0./ T T U K u.`.|.|.|.s.    ",
"    s.|.|.|.W.x.-.9.:._ ) ` ' $.T.J.C & . b l.E.9.%./ T T T T P 3.T.|.|.|.s.    ",
"  . s.|.|.|.D.y.>.:.$.( ) ) T T 8.y.,.] c } 3.:.( T T T T T T T -.S.|.|.|.Z   . ",
"  o d.|.|.|.C.4.9.=._ ` ` ) T U T _ @...W ` ) T T T T T T T T T ..M.|.|.|.s.X @ ",
". * d.|.|.|.m.;.=.%._ %.` R T I T T T T T T T U P T T T T T T T Q 7.|.|.|.s.O 2 ",
"> 6 g.|.|.|.7.#.&.) &.$.) T T J I U T T T T T I G U T T T T U T I 1.}.|.}.Z ; d ",
"z , C /.|.].6...%.` &._ R T R  .L U T T T T I E O.T U U T T T T I -.~.|.J.M , S ",
"G , 0 g.}.R.1.W ! ~ ^ R I P R 6.2...I P I I ^ 5.M.I I I I I I I I X.D.{.d.7 3 G ",
"H t < M }.W.c.2.2.6.3.1.;.1.2.S.S.x.<.<.<.<.c.K.R.2.<.<.<.<.<.<.<.7.D.U.n < p H ",
"H z 3 w H.(.P.F.F.F.F.F.F.F.K.`.].!.F.F.F.F.!.{.[.K.F.F.F.F.F.F.F.L.U.d.7 3 x H ",
"H J p = M /.|.|.|.|.|.|.|.|.|.|.|.|.|.|.|.|.|.|.|.|.|.|.|.|.|.|.|.|./.7 O a H H ",
"H H z 3 = g./.|.|.|.|.|.|.|.|.|.|.|.|.|.|.|.|.|.|.|.|.|.|.|.|.|.|._.k.& t A H H ",
"H H F k , 7 f.Y.|.|.|.|.|.|.|.|.|.|.|.|.|.|.|.|.|.|.|.|.|.|.|.|./.h.q 3 k G H H ",
"H H H F f $ w d.Y.|.|.|.|.|.|.|.|.|.|.|.|.|.|.|.|.|.|.|.|.|.|./.g.s + f F H H H ",
"H H H H F i - q d.~.}.|.|.|.|.|.|.|.|.|.|.|.|.|.|.|.|.|.|.|.Y.g.w # 3 J H H H H ",
"H H H H H G t $ 4 d.Y.[.|.|.|.|.|.|.|.|.|.|.|.|.|.|.|.|.[.Y.s.5 O u H H H H H H ",
"H H H H H H F f , & 4 j._.|.|.|.|.|.|.|.|.|.|.|.|.|.|.[.l.q & , d F H H P H H H ",
"H H H H H H H D k t + 0 n Z G.[.|.|.|.|.|.|.|.|._.l.C b 0 # 2 g D H H H H H H H ",
"H H H H H H H H G S a 3 : 4 m Z s.s.s.s.s.s.s.s.C b = % 3 p k F H H H H H H H H ",
"H H H H H H H H H H H x p 2 , : X .         + % - , 2 i z H H H H H H H H H H H ",
"H H H H H H H H H H H H H H D g ;           O e k F G H G H H H H H H H H H H H "
};
