/* XPM */
static char *E21654781548[] = {
/* columns rows colors chars-per-pixel */
"40 40 174 2 ",
"   c #030404",
".  c #050709",
"X  c #06090C",
"o  c #0A0B0D",
"O  c #050B13",
"+  c #0A0D11",
"@  c #0D1114",
"#  c #06121E",
"$  c #0C121A",
"%  c #121314",
"&  c #13161A",
"*  c #1F141A",
"=  c #16191C",
"-  c #1A1C1E",
";  c #360C0F",
":  c #37181E",
">  c #071422",
",  c #091523",
"<  c #0A1726",
"1  c #081728",
"2  c #09192B",
"3  c #141B23",
"4  c #1B1E23",
"5  c #141E2A",
"6  c #0B1D32",
"7  c #371922",
"8  c #1E2022",
"9  c #1A222B",
"0  c #0D2035",
"q  c #0C223C",
"w  c #162537",
"e  c #1C2632",
"r  c #222324",
"t  c #23272B",
"y  c #2F2128",
"u  c #2A2B2C",
"i  c #262B32",
"p  c #252E38",
"a  c #312931",
"s  c #2B323B",
"d  c #333434",
"f  c #313539",
"g  c #3B3B3C",
"h  c #39383F",
"j  c #4C151A",
"k  c #650101",
"l  c #66090C",
"z  c #691014",
"x  c #6A181E",
"c  c #761D1E",
"v  c #471F2A",
"b  c #49222B",
"n  c #67212B",
"m  c #74292E",
"M  c #712E35",
"N  c #0D2541",
"B  c #0E2846",
"V  c #0F2C4D",
"C  c #0F2D50",
"Z  c #112F52",
"A  c #113154",
"S  c #11335B",
"D  c #353C44",
"F  c #3A3E44",
"G  c #363F49",
"H  c #123761",
"J  c #133964",
"K  c #143C6A",
"L  c #7C3C44",
"P  c #3B434D",
"I  c #3B4859",
"U  c #164174",
"Y  c #17467C",
"T  c #434444",
"R  c #424349",
"E  c #46484A",
"W  c #4B4C4D",
"Q  c #5A4048",
"!  c #424A53",
"~  c #4E4F51",
"^  c #4B5157",
"/  c #4C535A",
"(  c #545454",
")  c #55585C",
"_  c #5B5B5C",
"`  c #6E464D",
"'  c #595F67",
"]  c #515C68",
"[  c #6B5A63",
"{  c #7B5C63",
"}  c #5B626C",
"|  c #59697C",
" . c #616263",
".. c #63686E",
"X. c #6D6C6D",
"o. c #646B73",
"O. c #6C6F72",
"+. c #656E7A",
"@. c #6A717A",
"#. c #6C737C",
"$. c #727273",
"%. c #76787A",
"&. c #7D7D7D",
"*. c #802D2D",
"=. c #863A3B",
"-. c #924F51",
";. c #8F575D",
":. c #986E76",
">. c #A26869",
",. c #184A83",
"<. c #1A4E8A",
"1. c #1A508D",
"2. c #1B5292",
"3. c #1C5699",
"4. c #1D599E",
"5. c #667382",
"6. c #697582",
"7. c #797E87",
"8. c #7E8B9A",
"9. c #838383",
"0. c #86888B",
"q. c #8A8A8A",
"w. c #828992",
"e. c #868F9B",
"r. c #8C949D",
"t. c #939494",
"y. c #92969B",
"u. c #9B9C9C",
"i. c #B68889",
"p. c #BB9495",
"a. c #8A95A3",
"s. c #969CA5",
"d. c #9DA0A2",
"f. c #9CA3AC",
"g. c #9CA5B1",
"h. c #A4A4A4",
"j. c #A5A9AF",
"k. c #ABABAB",
"l. c #A9AEB4",
"z. c #ABB2BB",
"x. c #B2B2B3",
"c. c #B1B6BB",
"v. c #B7B9BC",
"b. c #C9AFB1",
"n. c #AEB7C2",
"m. c #B3BDC9",
"M. c #BDC4CE",
"N. c #B7C4D4",
"B. c #C3C3C4",
"V. c #CBCBCB",
"C. c #C3CBD4",
"Z. c #CAD0D7",
"A. c #CBD2DC",
"S. c #D5D5D5",
"D. c #D4D7D9",
"F. c #D7D9DB",
"G. c #DCDCDC",
"H. c #E1D5D7",
"J. c #CFD7E0",
"K. c #CFD9E4",
"L. c #D4DDE6",
"P. c #DBDFE3",
"I. c #DDE3EA",
"U. c #E2E2E2",
"Y. c #E1E6EC",
"T. c #E6E9EC",
"R. c #EBECEC",
"E. c #E5EAF0",
"W. c #EBEEF3",
"Q. c #EEF1F5",
"!. c #F3F4F4",
"~. c #F4F7F9",
"^. c #F7F8F9",
"/. c #FFFFFF",
/* pixels */
"4.4.4.4.4.4.4.4.4.4.4.4.4.K                     X <.4.4.4.4.4.4.4.4.4.4.4.4.4.4.",
"4.4.4.4.4.4.4.4.4.4.4.K N ,   .     . . % % & % . 2 2 J 3.4.4.4.4.4.4.4.4.4.4.4.",
"4.4.4.4.4.4.4.4.2.U C 9 F X.&.0.9.9.9.q.q.q.y.q.9.$.u < V V S ,.3.4.4.4.4.4.4.4.",
"4.4.4.4.4.4.4.<.K 0 = W u.U.^././././././././././.R.9.~ g = O V Y 3.4.4.4.4.4.4.",
"4.4.4.4.4.4.1.A @ % _ V./././././././././././././././.!.B.( r o B ,.4.4.4.4.4.4.",
"4.4.4.4.4.<.q o % T F.^././././././././././././././././.^.R.B.T + 6 <.4.4.4.4.4.",
"4.4.4.3.<.0 O u O.B.^./././././././././././././././././././.^.B._ + q 2.4.4.4.4.",
"4.4.3.,.B . T 9.V././././././././././././././././././././././.^.x.~ o Z <.4.4.4.",
"4.4.,.V o - t.U./.~.Q.W.T.P.F.D.F.T.Q././.~.!.Q.Q.Q.W.E.T.W.~./.R.k.u $ K 1.4.4.",
"4.3.A + % O.S./.Q.Z.M.z.f.w.#.O.#.a.N.^.Q.D.M.m.m.m.m.l.f.z.Z.Q./.I.q.% 0 U 3.4.",
"4.S > & ( H.^.!.v.P i r 8 8 9 4 4 9 } Y.k./ p e - - - & & = s M././.H.T & V 2.4.",
"3.q @ T V.^./.R.d.4 & @ + o @ o . + P N.r.f + + . . o o     @ v././.^.x.d 2 K 4.",
"Y 2 d t./././.R.d.@ % o @ o .   . o 9 ] W - . O X X O X .   o t.U././.R.( $ N 4.",
"S 5 $.G./././.!.j.& @ o % @       . . . .   . + X X X o . . o  .B./././.q.t 1 ,.",
"V s y.^./././.Y.r.= @ + @ @   o . . . . . . .     . . o . . o P k./././.S. .O q ",
"O t u././././.c./ = o . o + . o . . o @   . O O   O O .       4 y./././.^.&.    ",
"  o q././././.h.D 4 . o + + . . o R [ j j Q D , . . . . . . . + q././././.&.    ",
"    &././././.y.t $ o . o o % } X.{ L k z M ` [ $.= .   . . X o 9.^./././.9.    ",
"    9./././.^.r.5 X o . . - ) Z.b.-.k k k k =.p.F. .4   . X .   8.^./././.9.    ",
"    9./././.~.e.e . + o . R V.!.i.*.k k k k c >.H.F.T .   o     %.Q./././.9..   ",
"    0./././.Y.8.e + 3 + . + u n.:.m l k k l x ;.M.f % . . O   . @.I./././.q.%   ",
"    9./././.J.6.5 & , X . O $ G a b n z l n v y D o     . O   . D s./././.q.o   ",
"  o 9./././.s.G & $ O X . O O X o * : ; ; 7 * X       . . O . . 4 O./././.q.+   ",
"  - y./././...3 + $ X             . . . . o . . .   . .     . . o ) ^././.q.@ O ",
", f d.^./././ $ +           . o . . . . . . . o + . . . .   .   . W Q./.!.%.@ 2 ",
"A 5 :.!./.~.^ .           . # I 3 . . .   . X 9 ! o         . . . E I./.B.( $ B ",
"<.6 ~ v./.Y./ X   O $ # # O 3 8.| p .     X s 6.g.5 O .   . . . O I K.~.&.r < Y ",
"3.Z p $.R.I.r.+.o.+.#.6.5.+.@.M.m.e.o.o.} } w.M.I.7.+.o.......' ^ #.A.B.T @ q 3.",
"4.Y w T x.T.I.I.L.L.L.L.L.L.L.Q.~.T.L.L.J.C.P.^.~.I.L.L.P.L.J.C.z.c.G.X.- 1 J 4.",
"4.4.J t ~ U.^./././././././././././././././././././././././././././.G.d + V 3.4.",
"4.4.,.Z - 0.G././././././././././././././././././././././././././.S.$.% 6 U 4.4.",
"4.4.3.U 2 u d.R././././././././././././././././././././././././.U.t.- O J 2.4.4.",
"4.4.4.1.K # W h.W././././././././././././././././././././././.G.t.g X A <.4.4.4.",
"4.4.4.4.2.C < ( x.!././././././././././././././././././././.U.t.g O q 2.4.4.4.4.",
"4.4.4.4.4.4.V # T V.R.^././././././././././././././././.^.H.q.u X N 4.4.4.4.4.4.",
"4.4.4.4.4.4.2.S $ r X.B.!././././././.^./././././././.^.B.T & O V 2.4.4.4.4.4.4.",
"4.4.4.4.4.4.4.1.K q t F  .y.V.~.^././.~.~./././.!.V.t._ g @ 2 H <.4.4.4.4.4.4.4.",
"4.4.4.4.4.4.4.4.3.U S q e g _ %.&.&.:.8.&.&.&.&.%. .d & # V K 2.4.4.4.4.4.4.4.4.",
"4.4.4.4.4.4.4.4.3.4.4.,.Z q 1 O               . , 2 6 q S 2.4.4.4.4.4.4.4.4.4.4.",
"4.4.4.4.4.4.4.4.4.4.4.4.4.3.,.q X             # K 2.3.4.4.4.4.4.4.4.4.4.4.4.4.4."
};
