/* XPM */
static char *PA1654781548[] = {
/* columns rows colors chars-per-pixel */
"40 40 194 2 ",
"   c #120C07",
".  c #1C150B",
"X  c #1E1810",
"o  c #231B0F",
"O  c #28260F",
"+  c #2F2614",
"@  c #322B17",
"#  c #342D1B",
"$  c #1E2F23",
"%  c #222E25",
"&  c #3D3D27",
"*  c #434A1B",
"=  c #444D2D",
"-  c #504F2B",
";  c #4D5F26",
":  c #515E27",
">  c #4A4537",
",  c #53692D",
"<  c #5E7324",
"1  c #546D3A",
"2  c #597537",
"3  c #667828",
"4  c #687C29",
"5  c #6A6E3F",
"6  c #687B37",
"7  c #3F575E",
"8  c #395E5C",
"9  c #3B5D66",
"0  c #385C6F",
"q  c #3A6463",
"w  c #3A6674",
"e  c #3D6A7B",
"r  c #3E7178",
"t  c #5C5847",
"y  c #475D53",
"u  c #625F4E",
"i  c #496848",
"p  c #556E44",
"a  c #5B7846",
"s  c #557449",
"d  c #5B7C4E",
"f  c #466A53",
"g  c #42655A",
"h  c #576B59",
"j  c #4E7259",
"k  c #577856",
"l  c #6B7742",
"z  c #637C4A",
"x  c #585F62",
"c  c #446B64",
"v  c #44676B",
"b  c #556C6C",
"n  c #4B746D",
"m  c #537D64",
"M  c #587D67",
"N  c #486576",
"B  c #566775",
"V  c #477579",
"C  c #547D73",
"Z  c #517E7B",
"A  c #647464",
"S  c #6A6C76",
"D  c #757078",
"F  c #6B8227",
"G  c #74862C",
"H  c #778A2A",
"J  c #79982F",
"K  c #6A8636",
"L  c #788E39",
"P  c #779636",
"I  c #7B9A31",
"U  c #79933B",
"Y  c #5C824F",
"T  c #5A805A",
"R  c #6B8749",
"E  c #7C8A49",
"W  c #789446",
"Q  c #648454",
"!  c #658859",
"~  c #79825A",
"^  c #6A9351",
"/  c #769657",
"(  c #7BA44A",
")  c #7FA15C",
"_  c #5B8467",
"`  c #588273",
"'  c #648966",
"]  c #638B6A",
"[  c #74956B",
"{  c #6E8975",
"}  c #7A8070",
"|  c #6B9475",
" . c #799F70",
".. c #80932B",
"X. c #869A2E",
"o. c #8A9E34",
"O. c #87973B",
"+. c #8BA134",
"@. c #8DA43B",
"#. c #94A734",
"$. c #96AA37",
"%. c #9EB236",
"&. c #9CB23F",
"*. c #AABD3C",
"=. c #B3C93F",
"-. c #829D45",
";. c #839F5B",
":. c #87A140",
">. c #9AA64C",
",. c #9AB245",
"<. c #87A458",
"1. c #96A550",
"2. c #93AD56",
"3. c #9CB35E",
"4. c #A6BA48",
"5. c #A4B550",
"6. c #8B8B65",
"7. c #979C68",
"8. c #8D8E78",
"9. c #889A75",
"0. c #87A467",
"q. c #9AB462",
"w. c #89A778",
"e. c #99B170",
"r. c #A3BA6B",
"t. c #BAB978",
"y. c #AEC243",
"u. c #A7C24E",
"i. c #B6CC42",
"p. c #B9CD45",
"a. c #BDD344",
"s. c #B9D14E",
"d. c #ABC652",
"f. c #B9CC59",
"g. c #BDC677",
"h. c #C0D646",
"j. c #C5D74A",
"k. c #C9D957",
"l. c #C4D36A",
"z. c #D4DE74",
"x. c #1D599E",
"c. c #2B5D84",
"v. c #275B8C",
"b. c #295D8B",
"n. c #3B5B83",
"m. c #305B8E",
"M. c #245C94",
"N. c #295F91",
"B. c #235C9B",
"V. c #295E9C",
"C. c #345F94",
"Z. c #2E6384",
"A. c #2C628D",
"S. c #356584",
"D. c #30658B",
"F. c #3A648B",
"G. c #3A6A89",
"H. c #386C8E",
"J. c #3E7187",
"K. c #276096",
"L. c #2B6394",
"P. c #2A629C",
"I. c #336A92",
"U. c #3B6799",
"Y. c #495F81",
"T. c #456D83",
"R. c #586A86",
"E. c #48788B",
"W. c #597787",
"Q. c #436994",
"!. c #40689C",
"~. c #487994",
"^. c #547295",
"/. c #436EA1",
"(. c #578381",
"). c #6D8C8E",
"_. c #6E9483",
"`. c #91AD95",
"'. c #AEAB82",
"]. c #A4BC97",
"[. c #9CC2A7",
"{. c #BCD3BB",
"}. c #D0DB89",
"|. c #D5DD91",
" X c #CACCAB",
".X c #C9CCB9",
"XX c #C9D2B6",
"oX c #D3D2BB",
"OX c #DDDCB9",
"+X c #E2EAAA",
"@X c #E3EBB1",
"#X c #DBDDC8",
"$X c #DBDDD1",
"%X c #EDEBD5",
/* pixels */
"x.x.x.x.x.x.x.x.x.x.x.x.x.x.x.x.x.x.x.x.x.x.x.B.x.!.!.x.x.x.x.x.x.x.x.x.x.x.x.x.",
"x.x.x.x.x.x.x.x.x.x.x.x.x.x.x.x.x.x.x.x.x.^.W.G.v h v x.x.x.x.x.x.x.x.x.x.x.x.x.",
"x.x.x.x.x.x.x.x.x.x.x.x.x.x.x.x.x.x.x.x.B.Q.W.b z 6 f x.x.x.x.x.x.x.x.x.x.x.x.x.",
"x.x.x.x.x.B.B.N.v.c.v.x.x.x.x.x.x.x.x.x.V.M.S.h 6 G k x.x.x.x.x.x.x.x.x.x.x.x.x.",
"x.x.x.x.x.M.n.x N y 7 B.B.x.x.x.x.x.x.B.m.C.e a 4 ..k B.x.x.x.x.x.x.x.x.x.x.x.x.",
"x.x.x.x.B.N p , ; 8 0 v.U.V.x.x.x.x.x.x.N z O.o...X.! B.x.x.x.x.x.x.x.x.x.x.x.x.",
"x.x.x.x.x.e z X.o.k g i F.V.x.x.x.x.x.x.v.S.T.V j 6 d H.B.x.x.x.x.x.x.x.x.x.x.x.",
"x.x.x.x.x.M.M #.$.L s g N.B.x.x.x.x.x.x.x.x.x.x.c.p a Z B.x.x.x.x.x.x.x.x.x.x.x.",
"x.x.x.x.x.x.e U #.o.Y N.x.x.x.x.x.x.x.B.x.x.x.x.x.q d [ K.x.x.x.x.x.x.x.x.x.x.x.",
"x.x.x.x.x.x.Z._ +.:._ x.x.x.x.x.x.V.P.P.V.B.B.x.x.A.C <.K.x.x.x.x.x.x.x.x.x.x.x.",
"x.x.x.x.x.x.B.D.L W Z x.x.x.x.B.P.).`.].`.).^.x.x.A.C / K.x.x.x.x.x.x.x.x.x.x.x.",
"x.x.x.x.x.x.x.M.d ^ ` x.B.!.W._.0.q.t.l.l.l.w.~.x.e m ' K.x.x.x.x.x.x.x.x.x.x.x.",
"x.x.x.x.x.x.x.B.e ! _ x.x.T.[ 2.4.y.p.j.k.k.f.w.~.c d ' K.x.x.x.x.x.x.x.x.x.x.x.",
"x.x.x.x.x.x.x.x.B.m ! A.B.n W $.&.*.k.z.z.k.j.s. .s p ' K.x.x.x.x.x.x.x.x.x.x.x.",
"x.x.x.x.x.x.x.x.x.w k k M.! @.,.,.4.g.#X%X|.k.h.a.G 1 _ K.x.x.x.x.x.x.x.x.x.x.x.",
"x.x.x.x.x.x.x.x.x.M.9 , b.! q.XXoX9.f h `.#X+Xh.h.i.2.Z M.x.x.x.x.x.x.x.x.x.x.x.",
"x.x.x.x.x.x.x.x.x.x.w , i L r.#X.XA $ $ k {.@Xp.a.a.d.| P.x.x.x.x.x.x.x.x.x.x.x.",
"x.x.x.x.x.x.x.x.x.x.Z.f K P r.$X.X{ 8 % j {.+Xi.a.a.s.q.P.x.x.x.x.x.x.x.x.x.x.x.",
"x.x.x.x.x.x.x.x.x.x.K.Z.U I q.XXoX[.| A `.{.}.=.a.a.a.d.I.x.x.x.x.x.x.x.x.x.x.x.",
"x.x.x.x.x.x.x.x.x.x.B.D.( ( :.2. X X X XOXl.4.y.a.a.a.d.I.x.x.x.x.x.x.x.x.x.x.x.",
"x.x.x.x.x.x.x.x.x.x.x.K.( ( I J L L O.O.>.t.t.7.y.i.i.u.I.x.x.x.x.x.x.x.x.x.x.x.",
"x.x.x.x.x.x.x.x.x.x.x.K.^ I I H 4 l ~ 6.7.'.6.& , #.i.u.I.x.x.x.x.x.x.x.x.x.x.x.",
"x.x.x.x.x.x.x.x.x.x.x.M.r ^ J F * & > u t u >   O H ,.) K.x.x.x.x.x.x.x.x.x.x.x.",
"x.x.x.x.x.x.x.x.x.x.x.x.B.T P F o   X # o . . . o 3 ( ` B.x.x.x.x.x.x.x.x.x.x.x.",
"x.x.x.x.x.x.x.x.x.x.x.x.x.r Y 2 o o o + @ @ @ @ & 3 Q L.B.x.x.x.x.x.x.x.x.x.x.x.",
"x.x.x.x.x.x.x.x.x.x.x.x.x.x.Z.q : * & * - 5 E W b 1 s H.B.x.x.x.x.x.x.x.x.x.x.x.",
"x.x.x.x.x.x.x.x.x.x.x.x.x.x.B.w 1 ; = 0 g N V G.A.8 1 (.K.x.x.x.x.x.x.x.x.x.x.x.",
"x.x.x.x.x.x.x.x.x.x.x.x.x.x.x.K.2 2 g M.v.M.x.x.x.8 2 | K.x.x.x.x.x.x.x.x.x.x.x.",
"x.x.x.x.x.x.x.x.x.x.x.x.x.x.x.v.K d w x.x.x.x.x.x.0 k 0.P.x.x.x.x.x.x.x.x.x.x.x.",
"x.x.x.x.x.x.x.x.x.x.x.x.x.x.x.A.L n B.x.x.x.x.x.x.c.` 0.L.x.x.x.x.x.x.x.x.x.x.x.",
"x.x.x.x.x.x.x.x.x.x.x.x.x.x.x.A.U C K.x.x.x.x.x.x.x.Z <.L.x.x.x.x.x.x.x.x.x.x.x.",
"x.x.x.x.x.x.x.x.x.x.x.x.x.x.x.v.Q W _ L.x.x.x.x.x.x.n W I.x.x.x.x.x.x.x.x.x.x.x.",
"x.x.x.x.x.x.x.x.x.x.x.x.x.x.x.B.n W -.] K.x.x.x.x.x.w K _.I.x.x.x.x.x.x.x.x.x.x.",
"x.x.x.x.x.x.x.x.x.x.x.x.x.x.x.B.E.R #.&.D.x.x.x.x.L.c 4 e.^.x.x.x.x.x.x.x.x.x.x.",
"x.x.x.x.x.x.x.x.x.x.x.x.x.x.B.D.;.@.$.,.H.B.x.x.x.e s 3 5.(.V.x.x.x.x.x.x.x.x.x.",
"x.x.x.x.x.x.x.x.x.x.x.x.x.x.(.3.$.%.&.<.L.x.x.x.x.w f < o.r._.x.x.x.x.x.x.x.x.x.",
"x.x.x.x.x.x.x.x.x.x.x.x.P.c.B 8.~ ,.;.G.B.x.x.x.x.x.q < G 1.7.W.U.V.x.x.x.x.x.x.",
"x.x.x.x.x.x.x.x.x.x.x.x./.R.S D D D Z x.x.x.x.x.x.x.J.A l ~ } R.Q.V.x.x.x.x.x.x.",
"x.x.x.x.x.x.x.x.x.x.x.B./.^.W.B R.C.V.x.x.x.x.x.x.x.U.).b N Y.n.C.B.x.x.x.x.x.x.",
"x.x.x.x.x.x.x.x.x.x.x.x.x.x.x.B.x.x.x.x.x.x.x.x.x.x.x.x.x.x.x.x.x.x.x.x.x.x.x.x."
};
