/* XPM */
static char *edcb9cf8c0824696a3b943bef7f00b93QBPSGKE01iaDVykD[] = {
/* columns rows colors chars-per-pixel */
"40 40 192 2 ",
"   c #120C07",
".  c #1C150B",
"X  c #231B0F",
"o  c #21200C",
"O  c #28260F",
"+  c #2F2614",
"@  c #322B17",
"#  c #342D1B",
"$  c #3E3E1D",
"%  c #1E2F23",
"&  c #222E25",
"*  c #3D3D27",
"=  c #2C4F3E",
"-  c #434A1B",
";  c #444D2D",
":  c #504F2B",
">  c #4D5F26",
",  c #4A4537",
"<  c #53692D",
"1  c #5E7324",
"2  c #546D3A",
"3  c #597537",
"4  c #667828",
"5  c #687C29",
"6  c #6A6E3F",
"7  c #687B37",
"8  c #3F575E",
"9  c #395E5C",
"0  c #3B5D66",
"q  c #385C6F",
"w  c #3A6463",
"e  c #3A656B",
"r  c #3A6674",
"t  c #3D6A7B",
"y  c #3E7178",
"u  c #5C5847",
"i  c #475D53",
"p  c #625F4E",
"a  c #496848",
"s  c #556E44",
"d  c #5B7846",
"f  c #557449",
"g  c #5B7C4E",
"h  c #466A53",
"j  c #42655A",
"k  c #576B59",
"l  c #4E7259",
"z  c #577856",
"x  c #6B7742",
"c  c #637C4A",
"v  c #7A7F55",
"b  c #585F62",
"n  c #446B64",
"m  c #44676B",
"M  c #556C6C",
"N  c #4B746D",
"B  c #537D64",
"V  c #587D67",
"C  c #486576",
"Z  c #566775",
"A  c #477579",
"S  c #547D73",
"D  c #517E7B",
"F  c #647464",
"G  c #6A6C76",
"H  c #757078",
"J  c #6B8227",
"K  c #74862C",
"L  c #778A2A",
"P  c #79982F",
"I  c #6A8636",
"U  c #788E39",
"Y  c #779636",
"T  c #7B9A31",
"R  c #79933B",
"E  c #5C824F",
"W  c #6B8749",
"Q  c #7C8A49",
"!  c #789446",
"~  c #648454",
"^  c #658859",
"/  c #79825A",
"(  c #6A9351",
")  c #769657",
"_  c #7BA44A",
"`  c #498060",
"'  c #5B8467",
"]  c #588273",
"[  c #648966",
"{  c #638B6A",
"}  c #74956B",
"|  c #6E8975",
" . c #7A8070",
".. c #6B9475",
"X. c #799F70",
"o. c #869A2E",
"O. c #8A9E34",
"+. c #87973B",
"@. c #82A535",
"#. c #8BA134",
"$. c #8DA43B",
"%. c #94A734",
"&. c #96AA37",
"*. c #9EB236",
"=. c #9CB23F",
"-. c #AABD3C",
";. c #B3C93F",
":. c #829D45",
">. c #839F5B",
",. c #87A140",
"<. c #9AA64C",
"1. c #9AB245",
"2. c #87A458",
"3. c #96A550",
"4. c #93AD56",
"5. c #A6BA48",
"6. c #A4B550",
"7. c #8B8B65",
"8. c #979C68",
"9. c #8D8E78",
"0. c #889A75",
"q. c #87A467",
"w. c #99AB63",
"e. c #9AB462",
"r. c #99B170",
"t. c #A3BA6B",
"y. c #BAB978",
"u. c #B6CC42",
"i. c #B9CD45",
"p. c #BDD344",
"a. c #B9D14E",
"s. c #ABC652",
"d. c #B9CC59",
"f. c #B9C868",
"g. c #BDC677",
"h. c #C0D646",
"j. c #C5D74A",
"k. c #C9D957",
"l. c #C4D36A",
"z. c #D4DE74",
"x. c #1D599E",
"c. c #2B5D84",
"v. c #275B8C",
"b. c #305B8E",
"n. c #245C94",
"m. c #295F91",
"M. c #235C9B",
"N. c #295E9C",
"B. c #345F94",
"V. c #2E6384",
"C. c #2C628D",
"Z. c #356584",
"A. c #30658B",
"S. c #3A648B",
"D. c #3A6A89",
"F. c #386C8E",
"G. c #3E7187",
"H. c #276096",
"J. c #2B6394",
"K. c #2A629C",
"L. c #316591",
"P. c #336A92",
"I. c #3B6799",
"U. c #495F81",
"Y. c #456D83",
"T. c #586A86",
"R. c #48788B",
"E. c #597787",
"W. c #436994",
"Q. c #40689C",
"!. c #547295",
"~. c #436EA1",
"^. c #578381",
"/. c #6D8C8E",
"(. c #6E9483",
"). c #729E83",
"_. c #91AD95",
"`. c #AEAB82",
"'. c #A4BC97",
"]. c #9CC2A7",
"[. c #BCD3BB",
"{. c #D0DB89",
"}. c #D5DD91",
"|. c #CACCAB",
" X c #C9CCB9",
".X c #D3D2BB",
"XX c #DDDCB9",
"oX c #E2EAAA",
"OX c #E3EBB1",
"+X c #DBDDC8",
"@X c #DBDDD1",
"#X c #EDEBD5",
/* pixels */
"x.x.x.x.x.x.x.x.x.x.x.x.x.I.I.x.x.M.x.x.x.x.x.x.x.x.x.x.x.x.x.x.x.x.x.x.x.x.x.x.",
"x.x.x.x.x.x.x.x.x.x.x.x.x.m k C t E.!.x.x.x.x.x.x.x.x.x.x.x.x.x.x.x.x.x.x.x.x.x.",
"x.x.x.x.x.x.x.x.x.x.x.x.x.h 7 c M T.W.x.x.x.x.x.x.x.x.x.x.M.x.x.M.x.x.x.x.x.x.x.",
"x.x.x.x.x.x.x.x.x.x.x.x.x.z K 7 k Z.M.N.x.x.x.x.x.x.x.x.x.v.c.n.b.M.x.x.x.x.x.x.",
"x.x.x.x.x.x.x.x.x.x.x.x.M.~ L 4 c A S.B.M.x.x.x.x.x.M.M.n.8 i q b q x.x.x.x.x.x.",
"x.x.x.x.x.x.x.x.x.x.x.x.M.~ o.P #.+.~ 0 M.x.x.x.x.x.N.I.b.q 0 : < s C M.x.x.x.x.",
"x.x.x.x.x.x.x.x.x.x.x.M.F.g I l y G.Z.v.M.x.x.x.x.x.M.D.a j z o.o.~ t M.x.x.x.x.",
"x.x.x.x.x.x.x.x.x.x.x.H.^.d a c.x.x.x.x.x.x.x.x.x.x.x.J.j f R &.%.B J.x.x.x.x.x.",
"x.x.x.x.x.x.x.x.x.x.x.M.} d w x.x.x.x.M.x.x.x.x.x.x.x.x.m.g O.&.R t x.x.x.x.x.x.",
"x.x.x.x.x.x.x.x.x.x.x.J.>.S v.x.x.M.N.N.K.K.N.x.x.x.x.x.x.' ,.O.V C.x.x.x.x.x.x.",
"x.x.x.x.x.x.x.x.x.x.x.J.) S J.x.x.T./._.].'./.K.x.x.x.x.M.S ! U A.M.x.x.x.x.x.x.",
"x.x.x.x.x.x.x.x.x.x.x.H.[ V t M.F._.g.l.l.f.6.q.(.E.Q.M.x.] ( z n.x.x.x.x.x.x.x.",
"x.x.x.x.x.x.x.x.x.x.x.H.[ g n R.q.f.k.j.j.h.5.5.4.} Y.x.x.' ^ t x.x.x.x.x.x.x.x.",
"x.x.x.x.x.x.x.x.x.x.x.H.[ s f X.a.j.k.z.z.d.-.*.&.! N x.C.^ V M.x.x.x.x.x.x.x.x.",
"x.x.x.x.x.x.x.x.x.x.x.H.{ 2 K p.h.k.}.#X+Xg.5.1.&.$.^ H.z z e x.x.x.x.x.x.x.x.x.",
"x.x.x.x.x.x.x.x.x.x.x.M.D 4.u.h.h.oX@X_.z h 9..X|.t.^ v.< e M.x.x.x.x.x.x.x.x.x.",
"x.x.x.x.x.x.x.x.x.x.x.K...s.h.h.i.OX XB % % F  X@Xt.I a < r x.x.x.x.x.x.x.x.x.x.",
"x.x.x.x.x.x.x.x.x.x.x.P.e.i.h.h.u.OX[.` & = |  X@Xt.T I h V.x.x.x.x.x.x.x.x.x.x.",
"x.x.x.x.x.x.x.x.x.x.x.P.s.p.p.i.;.{.[._.F ).]..X Xe.@.R V.M.x.x.x.x.x.x.x.x.x.x.",
"x.x.x.x.x.x.x.x.x.x.x.P.s.p.p.i.;.5.f.XX.X|.|.|.w.:.@._ C.x.x.x.x.x.x.x.x.x.x.x.",
"x.x.x.x.x.x.x.x.x.x.x.P.s.p.u.5.8.y.y.<.+.+.R U Y T _ _ J.x.x.x.x.x.x.x.x.x.x.x.",
"x.x.x.x.x.x.x.x.x.x.x.J.1.u.%.1 * 7.`.8.7.v x 5 L T T ( J.x.x.x.x.x.x.x.x.x.x.x.",
"x.x.x.x.x.x.x.x.x.x.x.J.2.1.K O   , u u p , * - J P ( ` M.x.x.x.x.x.x.x.x.x.x.x.",
"x.x.x.x.x.x.x.x.x.x.x.H.D :.4 . . . . X # .   o 4 Y ` M.x.x.x.x.x.x.x.x.x.x.x.x.",
"x.x.x.x.x.x.x.x.x.x.x.M.J.^ 4 * @ @ @ @ + X . O 1 E y x.x.x.x.x.x.x.x.x.x.x.x.x.",
"x.x.x.x.x.x.x.x.x.x.x.M.G.s 2 N Q Q 6 : - $ - > n A.M.x.x.x.x.x.x.x.x.x.x.x.x.x.",
"x.x.x.x.x.x.x.x.x.x.x.M.^.s a n.G.G.C 0 0 ; > 2 V.x.x.x.x.x.x.x.x.x.x.x.x.x.x.x.",
"x.x.x.x.x.x.x.x.x.x.x.K...f 9 x.x.M.n.v.n.n 3 3 C.x.x.x.x.x.x.x.x.x.x.x.x.x.x.x.",
"x.x.x.x.x.x.x.x.x.x.x.J.X.z q x.x.x.x.x.x.t g I C.x.x.x.x.x.x.x.x.x.x.x.x.x.x.x.",
"x.x.x.x.x.x.x.x.x.x.x.J.2.] v.x.x.x.x.x.x.x.N R C.x.x.x.x.x.x.x.x.x.x.x.x.x.x.x.",
"x.x.x.x.x.x.x.x.x.x.x.J.2.] v.x.x.x.x.x.x.H.N Y C.x.x.x.x.x.x.x.x.x.x.x.x.x.x.x.",
"x.x.x.x.x.x.x.x.x.x.M.J.R A x.x.x.x.x.x.P.' ! E n.x.x.x.x.x.x.x.x.x.x.x.x.x.x.x.",
"x.x.x.x.x.x.x.x.x.x.I.^.I r M.x.x.x.x.H.{ :.! N n.x.x.x.x.x.x.x.x.x.x.x.x.x.x.x.",
"x.x.x.x.x.x.x.x.x.x.E.r.7 n J.x.x.x.x.L.1.#.W R.M.x.x.x.x.x.x.x.x.x.x.x.x.x.x.x.",
"x.x.x.x.x.x.x.x.x.N.^.6.1 f y x.x.x.M.F.1.%.$.2.F.H.x.x.x.x.x.x.x.x.x.x.x.x.x.x.",
"x.x.x.x.x.x.x.x.x.(.t.O.1 h V.x.x.x.x.J.2.=.*.&.e.R.M.x.x.x.x.x.x.x.x.x.x.x.x.x.",
"x.x.x.x.x.x.M.I.E.0.3.J 1 w n.x.x.x.x.M.G.2.<.v 9.Z U.N.x.x.x.x.x.x.x.x.x.x.x.x.",
"x.x.x.x.x.x.N.W.T. ./ x / D.x.x.x.x.x.x.x.R. .G H G T.~.x.x.x.x.x.x.x.x.x.x.x.x.",
"x.x.x.x.x.x.x.L.U.U.C Z /.I.x.x.x.x.x.x.x.M.W.T.Z T.!.~.M.x.x.x.x.x.x.x.x.x.x.x.",
"x.x.x.x.x.x.x.x.x.x.x.x.x.x.x.x.x.x.x.x.x.M.x.x.x.x.M.x.x.x.x.x.x.x.x.x.x.x.x.x."
};
